<?xml version="1.0"?>
<svg version="1.1" xmlns="http://www.w3.org/2000/svg" width="200" height="42" style=""><path fill="#ff0000" d="M15.953125,30.796875q0-1.4375,0.3359375-2.8203125t0.5703125-2.7578125q0.0625-0.359375,0.4921875-0.4453125t0.7265625-0.0859375q0.515625,0,0.828125,0.15625q0.125,0.0625,0.234375,0.140625t0.109375,0.203125q0,1.34375-0.3203125,2.625t-0.3203125,2.71875q0,0.484375,0.0703125,0.9140625t0.1328125,0.8515625l0.09375,0.453125q0,0.125,0.015625,0.21875t0.046875,0.21875q0,0.28125-0.3984375,0.3828125t-0.6953125,0.1015625q-0.453125,0-0.8359375-0.1796875t-0.6015625-0.6171875l-0.21875-0.453125q-0.1875-0.359375-0.1875-0.8046875t-0.078125-0.8203125z M16.953125,21.390625l0-0.296875q0-0.734375,0.3671875-1.3125t1.1015625-0.578125q0.09375,0,0.1796875,0.015625t0.1796875,0.015625q0.1875,0.03125,0.4921875,0.1484375t0.3046875,0.3671875l0,0.03125q-0.0625,0.125-0.078125,0.2578125t-0.078125,0.2265625l0.03125-0.03125q-0.1875,0.484375-0.3046875,0.78125t-0.2578125,0.4765625t-0.3515625,0.2578125t-0.6015625,0.078125q-0.0625,0-0.21875-0.015625t-0.3359375-0.0625t-0.3046875-0.125t-0.125-0.234375z M22.77609375,36.71875q0-0.453125,0.0390625-0.953125t0.0703125-0.9375l0.09375-2.34375q0.15625-2.8125,0.3828125-5.53125t0.3828125-5.5q0.09375-1.53125,0.140625-3.0078125t0.140625-3.0078125q-0.0625-0.125-0.0625-0.171875q0-0.21875,0.1640625-0.34375t0.3828125-0.2109375t0.4609375-0.1171875t0.3671875-0.03125l0.359375,0q0.484375,0.0625,0.703125,0.3046875t0.28125,0.578125t0.03125,0.71875t-0.03125,0.7109375q0,2.265625-0.109375,4.6171875t-0.25,4.71875t-0.2578125,4.734375t-0.1171875,4.6796875l0,1.09375q0,0.734375-0.4140625,0.96875t-1.1484375,0.234375q-0.640625,0-1.125-0.28125t-0.484375-0.921875z M29.9428125,37.515625l0.328125-0.390625q-0.0625-2.625-0.140625-5.234375t-0.078125-5.1875q0-3.203125,0.3828125-6.1953125t0.7578125-6.1328125q0.03125-0.1875,0.1796875-0.3046875t0.3671875-0.1953125t0.4453125-0.109375t0.4140625-0.03125q0.25,0,0.625,0.09375t0.75,0.546875q0,0.15625,0.0234375,0.2734375t0.0234375,0.2734375q0,1.1875-0.3203125,2.546875t-0.4296875,2.609375q-0.125,1.53125-0.171875,3.03125t-0.046875,3.046875l0.03125,1.375q0.3125-0.390625,0.890625-1t1.25-1.1796875t1.34375-0.9765625t1.21875-0.40625q0.828125,0,1.1484375,0.46875t0.3203125,1.234375q0,0.703125-0.3046875,1.46875t-0.796875,1.4921875t-1.1171875,1.3046875t-1.234375,0.859375q0.828125,1.03125,1.6953125,1.96875t1.8984375,1.765625l0,0.359375q-0.03125,0.15625-0.1953125,0.234375t-0.359375,0.125t-0.3828125,0.0703125t-0.3125,0.0234375q-0.765625,0-1.4765625-0.453125t-1.328125-1.109375t-1.1640625-1.390625t-1-1.28125q0.09375,1.796875,0.2109375,3.5859375t0.1171875,3.5859375q0,0.21875-0.1953125,0.3671875t-0.453125,0.2265625t-0.5234375,0.109375t-0.4375,0.03125q-0.921875,0-1.3046875-0.3359375t-0.6484375-1.1640625z M33.1459375,30.15625q0.390625,0,0.9296875-0.3359375t1.1171875-0.8359375t1.078125-1.0546875t0.8046875-1.0546875t0.3046875-0.8046875t-0.421875-0.2734375q-0.15625,0-0.640625,0.453125t-1.078125,1.109375t-1.1875,1.421875t-0.90625,1.375z M42.59390625,31.8125q0-1.09375,0.2421875-2.578125t0.8203125-2.8125t1.5234375-2.2578125t2.3828125-0.9296875q1.34375,0,2.015625,0.7734375t0.671875,2.0859375q0,0.859375-0.3203125,1.8828125t-0.9140625,1.9375t-1.40625,1.5234375t-1.8125,0.609375l-0.40625-0.03125q0,0.421875,0.125,1.1328125t0.3671875,1.4140625t0.625,1.234375t0.9296875,0.53125q0.796875,0,1.53125-0.640625t1.390625-1.421875t1.21875-1.421875t1.03125-0.640625q0.25,0,0.515625,0.078125t0.296875,0.4375q0,0.21875-0.1171875,0.359375t-0.2109375,0.3125q-0.484375,0.828125-1.0546875,1.578125t-1.2890625,1.359375t-1.5703125,0.9609375t-1.8828125,0.3515625q-1.34375,0-2.234375-0.4765625t-1.4375-1.28125t-0.7890625-1.859375t-0.2421875-2.2109375z M45.39078125,30.625l0.4375,0.390625q0.3125,0.28125,0.625,0.125t0.5625-0.5703125t0.4609375-1.0234375t0.375-1.25t0.2421875-1.25t0.078125-1.015625l0-0.53125t-0.046875-0.5625t-0.1640625-0.4453125t-0.3671875-0.2265625q-0.078125-0.015625-0.140625-0.015625q-0.53125,0-0.90625,0.671875q-0.40625,0.75-0.65625,1.8203125t-0.359375,2.1953125t-0.140625,1.6875z M55.65125,26.796875q0-0.640625,0.2265625-1.078125t0.9609375-0.4375q0.28125,0,0.703125,0.0859375t0.484375,0.4296875q0.15625,0.921875,0.171875,2t0.109375,2.03125q0.359375-0.703125,0.921875-1.515625t1.28125-1.5t1.5625-1.140625t1.71875-0.453125q0.0625,0,0.234375,0.046875t0.3203125,0.1328125t0.1796875,0.1953125t-0.171875,0.203125q-0.0625,0.1875-0.265625,0.2265625t-0.359375,0.0390625q-0.09375,0-0.296875-0.078125q-1.15625,0.609375-1.96875,1.65625t-1.328125,2.3203125t-0.75,2.6875t-0.234375,2.7578125q0,0.671875-0.3046875,0.8125t-0.9765625,0.140625q-0.359375,0-0.7578125-0.078125t-0.5546875-0.5q-0.28125-0.890625-0.4609375-2.046875t-0.2734375-2.3828125t-0.1328125-2.4140625t-0.0390625-2.140625z M72.8440625,35.3125q0.03125-0.65625,0.03125-1.28125q0-2.265625,0.1640625-4.515625t0.2265625-4.515625q0.09375-2.59375,0.171875-5.140625t0.3125-5.125q0.0625-0.640625,0.3671875-0.8359375t0.9140625-0.1953125q0.28125,0,0.75,0.109375t0.46875,0.53125q0.21875,0.03125,0.4375,0.03125q0.328125,0,0.671875-0.0625q0.5625-0.09375,1.1484375-0.2109375t1.1640625-0.2265625t1.109375-0.109375q0.125,0,0.3515625,0.015625t0.453125,0.09375t0.3828125,0.1953125t0.15625,0.3046875t-0.3671875,0.3359375t-0.9609375,0.2578125t-1.28125,0.1875t-1.34375,0.1328125t-1.1640625,0.0859375t-0.7265625,0.03125l-0.03125,5.875l0.03125,2.921875q0.484375,0,1.453125-0.03125q0.390625-0.015625,0.78125-0.015625q0.59375,0,1.21875,0.03125q1.03125,0.046875,1.859375,0.1875t1.046875,0.5q0,0.21875-0.2265625,0.3515625t-0.5078125,0.1953125t-0.5703125,0.078125t-0.4140625,0.015625q-1.15625,0-2.328125-0.046875t-2.3125-0.1875q0,1.921875-0.1015625,3.8125t-0.1015625,3.8125q0,0.828125,0.015625,1.6328125t0.1875,1.6015625q0.421875-0.03125,0.9140625-0.078125t1-0.1171875t0.9765625-0.1171875t0.8125-0.046875q0.1875,0,0.5078125,0.046875t0.65625,0.15625t0.578125,0.2734375t0.2421875,0.3828125q0,0.25-0.4609375,0.4453125t-1.1796875,0.3125t-1.5703125,0.1640625t-1.6484375,0.0625t-1.4375,0.015625l-0.90625,0q-0.859375,0-1.2578125-0.3203125t-0.5546875-0.8359375q-0.125-0.421875-0.109375-0.953125l0-0.21875z M85.83890625,37.515625l0.328125-0.390625q-0.0625-2.625-0.140625-5.234375t-0.078125-5.1875q0-3.203125,0.3828125-6.1953125t0.7578125-6.1328125q0.03125-0.1875,0.1796875-0.3046875t0.3671875-0.1953125t0.4453125-0.109375t0.4140625-0.03125q0.25,0,0.625,0.09375t0.75,0.546875q0,0.15625,0.0234375,0.2734375t0.0234375,0.2734375q0,1.1875-0.3203125,2.546875t-0.4296875,2.609375q-0.125,1.53125-0.171875,3.03125t-0.046875,3.046875l0.03125,1.375q0.3125-0.390625,0.890625-1t1.25-1.1796875t1.34375-0.9765625t1.21875-0.40625q0.828125,0,1.1484375,0.46875t0.3203125,1.234375q0,0.703125-0.3046875,1.46875t-0.796875,1.4921875t-1.1171875,1.3046875t-1.234375,0.859375q0.828125,1.03125,1.6953125,1.96875t1.8984375,1.765625l0,0.359375q-0.03125,0.15625-0.1953125,0.234375t-0.359375,0.125t-0.3828125,0.0703125t-0.3125,0.0234375q-0.765625,0-1.4765625-0.453125t-1.328125-1.109375t-1.1640625-1.390625t-1-1.28125q0.09375,1.796875,0.2109375,3.5859375t0.1171875,3.5859375q0,0.21875-0.1953125,0.3671875t-0.453125,0.2265625t-0.5234375,0.109375t-0.4375,0.03125q-0.921875,0-1.3046875-0.3359375t-0.6484375-1.1640625z M89.04203125,30.15625q0.390625,0,0.9296875-0.3359375t1.1171875-0.8359375t1.078125-1.0546875t0.8046875-1.0546875t0.3046875-0.8046875t-0.421875-0.2734375q-0.15625,0-0.640625,0.453125t-1.078125,1.109375t-1.1875,1.421875t-0.90625,1.375z M98.49,31.8125q0-1.09375,0.2421875-2.578125t0.8203125-2.8125t1.5234375-2.2578125t2.3828125-0.9296875q1.34375,0,2.015625,0.7734375t0.671875,2.0859375q0,0.859375-0.3203125,1.8828125t-0.9140625,1.9375t-1.40625,1.5234375t-1.8125,0.609375l-0.40625-0.03125q0,0.421875,0.125,1.1328125t0.3671875,1.4140625t0.625,1.234375t0.9296875,0.53125q0.796875,0,1.53125-0.640625t1.390625-1.421875t1.21875-1.421875t1.03125-0.640625q0.25,0,0.515625,0.078125t0.296875,0.4375q0,0.21875-0.1171875,0.359375t-0.2109375,0.3125q-0.484375,0.828125-1.0546875,1.578125t-1.2890625,1.359375t-1.5703125,0.9609375t-1.8828125,0.3515625q-1.34375,0-2.234375-0.4765625t-1.4375-1.28125t-0.7890625-1.859375t-0.2421875-2.2109375z M101.286875,30.625l0.4375,0.390625q0.3125,0.28125,0.625,0.125t0.5625-0.5703125t0.4609375-1.0234375t0.375-1.25t0.2421875-1.25t0.078125-1.015625l0-0.53125t-0.046875-0.5625t-0.1640625-0.4453125t-0.3671875-0.2265625q-0.078125-0.015625-0.140625-0.015625q-0.53125,0-0.90625,0.671875q-0.40625,0.75-0.65625,1.8203125t-0.359375,2.1953125t-0.140625,1.6875z M111.54734375,26.796875q0-0.640625,0.2265625-1.078125t0.9609375-0.4375q0.28125,0,0.703125,0.0859375t0.484375,0.4296875q0.15625,0.921875,0.171875,2t0.109375,2.03125q0.359375-0.703125,0.921875-1.515625t1.28125-1.5t1.5625-1.140625t1.71875-0.453125q0.0625,0,0.234375,0.046875t0.3203125,0.1328125t0.1796875,0.1953125t-0.171875,0.203125q-0.0625,0.1875-0.265625,0.2265625t-0.359375,0.0390625q-0.09375,0-0.296875-0.078125q-1.15625,0.609375-1.96875,1.65625t-1.328125,2.3203125t-0.75,2.6875t-0.234375,2.7578125q0,0.671875-0.3046875,0.8125t-0.9765625,0.140625q-0.359375,0-0.7578125-0.078125t-0.5546875-0.5q-0.28125-0.890625-0.4609375-2.046875t-0.2734375-2.3828125t-0.1328125-2.4140625t-0.0390625-2.140625z"/><path fill="#" d=""/></svg>
